<svg width="40" height="40" viewBox="0 0 40 40" fill="none" xmlns="http://www.w3.org/2000/svg">
<path opacity="0.5" d="M16.2966 35H23.7033C28.9049 35 31.5066 35 33.3749 33.775C34.1813 33.2469 34.8756 32.565 35.4183 31.7683C36.6666 29.935 36.6666 27.38 36.6666 22.2733C36.6666 17.1666 36.6666 14.6116 35.4183 12.7783C34.8756 11.9816 34.1813 11.2997 33.3749 10.7716C32.1749 9.98329 30.6716 9.70162 28.3699 9.60162C27.2716 9.60162 26.3266 8.78496 26.1116 7.72662C25.9473 6.9514 25.5204 6.25668 24.903 5.75987C24.2856 5.26306 23.5157 4.99464 22.7233 4.99996H17.2766C15.6299 4.99996 14.2116 6.14162 13.8883 7.72662C13.6733 8.78496 12.7283 9.60162 11.6299 9.60162C9.32992 9.70162 7.82658 9.98495 6.62492 10.7716C5.81915 11.2999 5.12537 11.9818 4.58325 12.7783C3.33325 14.6116 3.33325 17.165 3.33325 22.2733C3.33325 27.3816 3.33325 29.9333 4.58159 31.7683C5.12159 32.5616 5.81492 33.2433 6.62492 33.775C8.49325 35 11.0949 35 16.2966 35Z" fill="white"/>
<path d="M29.2599 15.4533C29.0791 15.4518 28.8998 15.4859 28.7322 15.5536C28.5646 15.6214 28.412 15.7215 28.283 15.8483C28.1541 15.975 28.0514 16.1259 27.9808 16.2924C27.9102 16.4588 27.8731 16.6375 27.8716 16.8183C27.8716 17.5716 28.4932 18.1816 29.2599 18.1816H31.1116C31.8782 18.1816 32.5016 17.57 32.5016 16.8183C32.5001 16.6374 32.4629 16.4585 32.3922 16.292C32.3215 16.1254 32.2186 15.9744 32.0895 15.8477C31.9604 15.7209 31.8076 15.6208 31.6398 15.5531C31.472 15.4855 31.2925 15.4516 31.1116 15.4533H29.2599Z" fill="black"/>
<path fill-rule="evenodd" clip-rule="evenodd" d="M20 15.4534C16.1666 15.4534 13.0566 18.5067 13.0566 22.2717C13.0566 26.0367 16.165 29.09 20.0016 29.09C23.835 29.09 26.945 26.0384 26.945 22.2734C26.945 18.5084 23.8366 15.4534 20.0016 15.4534M20.0016 18.1817C17.7016 18.1817 15.835 20.0134 15.835 22.2717C15.835 24.53 17.7016 26.3634 20.0016 26.3634C22.3033 26.3634 24.1683 24.5317 24.1683 22.2717C24.1683 20.0134 22.3033 18.1817 20.0016 18.1817Z" fill="black"/>
</svg>
